# xmcd
#
# Track frame offsets:
#	150
#	15485
#	31481
#	50558
#	70129
#	84009
#	104514
#	125338
#	144792
#	163586
#	188784
#	213243
#
# Disc length: 2958 seconds
#
# Revision: 1
# Processed by: cddbd v1.5.2PL0 Copyright (c) Steve Scherf et al.
# Submitted via: audiograbber 1.83.01
#
DISCID=960b8c0c
DTITLE=Morten Woods - Yours To Keep
DYEAR=2002
DGENRE=Soul
TTITLE0=Stop Wasting My Time
TTITLE1=(Oh my God) I´m back again (and it feels like heaven)
TTITLE2=How about kissing 
TTITLE3=Lone rangers 
TTITLE4=Bye-bye (by the way I love you)
TTITLE5=Yours to keep
TTITLE6=A song of love 
TTITLE7=It feels so good 
TTITLE8=All the kisses in the world 
TTITLE9=If no one could love her 
TTITLE10=That sweet love of yours 
TTITLE11=Pillow of me
EXTD=
EXTT0=
EXTT1=
EXTT2=
EXTT3=
EXTT4=
EXTT5=
EXTT6=
EXTT7=
EXTT8=
EXTT9=
EXTT10=
EXTT11=
PLAYORDER=
